<svg xmlns="http://www.w3.org/2000/svg" data-name="Layer 1" viewBox="0 0 90 90" x="0px" y="0px"><path d="M78.971,13.943H11.029a9.961,9.961,0,0,0-9.95,9.95V66.107a9.961,9.961,0,0,0,9.95,9.95H78.971a9.961,9.961,0,0,0,9.95-9.95V23.893A9.961,9.961,0,0,0,78.971,13.943Zm-1.613,5.49L45,41.669,12.687,19.433Zm6.073,46.674a4.465,4.465,0,0,1-4.46,4.46H11.029a4.465,4.465,0,0,1-4.46-4.46V23.893a4.434,4.434,0,0,1,.361-1.757L43.444,47.261a2.744,2.744,0,0,0,3.111,0l36.526-25.1a4.425,4.425,0,0,1,.35,1.732Z"/></svg>