<svg version="1.0" xmlns="http://www.w3.org/2000/svg"
 width="48" height="48" viewBox="0 0 48.000000 48.000000"
 preserveAspectRatio="xMidYMid meet">

<g transform="translate(0.000000,48.000000) scale(0.100000,-0.100000)">
<path d="M60 380 c-18 -18 -20 -33 -20 -140 0 -166 -7 -160 200 -160 207 0
200 -6 200 160 0 166 7 160 -200 160 -147 0 -162 -2 -180 -20z m338 -22 c23
-23 12 -35 -73 -81 l-85 -45 -85 46 c-85 47 -95 58 -73 80 17 17 299 17 316 0z
m-73 -114 l85 46 0 -78 c0 -47 -5 -83 -12 -90 -17 -17 -299 -17 -316 0 -7 7
-12 43 -12 91 l0 78 85 -46 85 -47 85 46z"/>
</g>
</svg>
