<svg xmlns="http://www.w3.org/2000/svg" xmlns:xlink="http://www.w3.org/1999/xlink" version="1.1" x="0px" y="0px" viewBox="0 0 100 100" style="enable-background:new 0 0 100 100;" xml:space="preserve"><path d="M75.6,59.4c-1.1-1.1-2.6-1.7-4.1-1.7s-3,0.6-4.1,1.7l-6.7,6.7c-1.2,1.2-3,1.3-4.3,0.3c-4.2-3.3-8.3-6.9-12.1-10.7  c-3.8-3.8-7.4-7.9-10.7-12.1c-1-1.3-0.9-3.1,0.3-4.3l6.7-6.7c1.1-1.1,1.7-2.6,1.7-4.1c0-1.6-0.6-3-1.7-4.1L27.9,11.7  c-1.1-1.1-2.6-1.7-4.1-1.7c-1.6,0-3,0.6-4.1,1.7l-3.5,3.5c-7.4,7.4-8.2,17-2.4,28.5c4.7,9.3,12.9,18.1,18.7,23.8  c5.8,5.8,14.5,14,23.8,18.7c5,2.6,9.7,3.8,14,3.8c5.5,0,10.3-2.1,14.5-6.2l3.5-3.5c2.3-2.3,2.3-6,0-8.2L75.6,59.4z M86.5,78.5  L83,81.9c-6.6,6.6-15,7.3-25.5,1.9c-9-4.6-17.5-12.6-23.2-18.2C28.7,60,20.7,51.5,16.1,42.5c-5.3-10.5-4.7-18.9,1.9-25.5l3.5-3.5  c0.6-0.6,1.4-0.9,2.3-0.9c0.9,0,1.7,0.3,2.3,0.9l12.7,12.7c0.6,0.6,0.9,1.4,0.9,2.3s-0.3,1.7-0.9,2.3L32,37.5  c-2.1,2.1-2.3,5.4-0.5,7.7c3.4,4.3,7,8.4,10.9,12.3c3.9,3.9,8,7.5,12.3,10.9c2.3,1.8,5.6,1.6,7.7-0.5l6.7-6.7c1.2-1.2,3.4-1.2,4.6,0  l12.7,12.7C87.7,75.2,87.7,77.2,86.5,78.5z"/></svg>