
<svg version="1.0" xmlns="http://www.w3.org/2000/svg"
 width="64" height="64" viewBox="0 0 256.000000 256.000000"
 preserveAspectRatio="xMidYMid meet">
<g transform="translate(0.000000,256.000000) scale(0.100000,-0.100000)"
>
<path d="M454 1936 l-34 -34 0 -514 c0 -563 -2 -541 60 -573 24 -12 82 -15
325 -15 162 0 295 -3 295 -7 0 -3 -8 -30 -17 -59 l-16 -53 -56 -3 -56 -3 -3
-37 -3 -37 -137 -3 c-129 -3 -137 -4 -137 -23 0 -20 8 -20 629 -23 395 -1 633
1 640 8 6 6 5 15 -4 25 -10 12 -40 15 -171 15 l-158 0 -3 38 -3 37 -56 3 -56
3 -16 53 c-9 29 -17 56 -17 59 0 4 133 7 295 7 243 0 301 3 325 15 62 32 60
10 60 573 l0 514 -34 34 -34 34 -792 0 -792 0 -34 -34z m1622 -30 c18 -14 19
-32 22 -450 l3 -436 -146 0 -145 0 0 155 0 155 -47 95 c-30 59 -53 95 -63 95
-10 0 -33 -36 -63 -95 l-47 -95 0 -155 c0 -131 -2 -155 -15 -155 -13 0 -15 45
-15 349 0 304 -2 352 -16 365 -12 13 -40 16 -134 16 -65 0 -125 -3 -134 -6
-14 -5 -16 -47 -16 -365 0 -352 0 -359 -20 -359 -20 0 -20 7 -20 270 l0 270
-45 89 c-24 49 -48 92 -53 95 -16 9 -30 -10 -76 -101 l-46 -93 0 -265 0 -265
-36 0 -37 0 7 143 c5 103 3 163 -8 221 -13 75 -13 80 5 100 35 37 44 89 26
138 -21 55 -73 118 -97 118 -24 0 -76 -63 -97 -118 -18 -49 -9 -101 26 -138
18 -20 18 -25 5 -100 -11 -58 -13 -118 -8 -221 l7 -143 -167 0 -167 0 3 436
c3 418 4 436 22 450 29 21 1563 21 1592 0z m-566 -241 l0 -35 -55 0 c-48 0
-55 -2 -55 -20 0 -18 7 -20 55 -20 l55 0 0 -35 c0 -30 -3 -35 -24 -35 -14 0
-28 -5 -31 -10 -9 -15 14 -40 36 -40 14 0 19 -7 19 -29 0 -29 -2 -30 -52 -33
-45 -3 -53 -6 -53 -23 0 -17 8 -20 53 -23 50 -3 52 -4 52 -33 0 -22 -5 -29
-19 -29 -22 0 -45 -25 -36 -40 3 -5 17 -10 31 -10 20 0 24 -5 24 -30 0 -28 -2
-30 -39 -30 -52 0 -71 -8 -71 -31 0 -16 8 -19 55 -19 l55 0 0 -60 0 -60 -105
0 -105 0 0 340 0 340 105 0 105 0 0 -35z m-614 -25 c21 -32 25 -47 21 -77 -6
-34 -36 -73 -57 -73 -21 0 -51 39 -57 73 -4 30 0 45 21 77 14 22 31 40 36 40
5 0 22 -18 36 -40z m274 -395 l0 -225 -60 0 -60 0 0 225 0 225 60 0 60 0 0
-225z m590 -110 l0 -115 -60 0 -60 0 0 115 0 115 60 0 60 0 0 -115z m337 -212
c-3 -29 -12 -52 -23 -60 -26 -19 -1562 -19 -1588 0 -11 8 -20 31 -23 60 l-6
47 823 0 823 0 -6 -47z m-674 -176 c9 -30 17 -57 17 -60 0 -4 -72 -7 -160 -7
-88 0 -160 3 -160 7 0 3 8 30 17 60 l17 53 126 0 126 0 17 -53z m137 -132 c0
-13 -38 -15 -280 -15 -242 0 -280 2 -280 15 0 13 38 15 280 15 242 0 280 -2
280 -15z"/>
<path d="M1097 1433 c-12 -11 -8 -341 3 -348 6 -4 17 -1 25 5 20 16 22 319 3
338 -14 14 -22 15 -31 5z"/>
</g>
</svg>
