<svg version="1.0" xmlns="http://www.w3.org/2000/svg"
 width="24" height="24" viewBox="0 0 24.000000 24.000000"
 preserveAspectRatio="xMidYMid meet">

<g transform="translate(0.000000,24.000000) scale(0.100000,-0.100000)"
>
<path d="M17 222 c-24 -26 -21 -52 10 -84 36 -38 51 -36 18 3 -28 34 -29 56
-4 72 21 13 60 -10 86 -49 14 -21 14 -29 4 -46 -15 -24 -7 -35 14 -18 26 22
17 54 -28 98 -46 46 -75 52 -100 24z"/>
<path d="M92 138 c-22 -22 -12 -54 31 -96 46 -46 75 -52 100 -24 24 26 21 52
-10 84 -36 38 -51 36 -18 -3 28 -34 29 -56 4 -72 -21 -13 -60 10 -86 49 -13
21 -14 30 -5 45 19 30 9 42 -16 17z"/>
</g>
</svg>
