<svg version="1.0" xmlns="http://www.w3.org/2000/svg"
 width="64" height="64" viewBox="0 0 256.000000 256.000000"
 preserveAspectRatio="xMidYMid meet">
<g transform="translate(0.000000,256.000000) scale(0.100000,-0.100000)">
<path d="M448 2124 c-59 -32 -58 -18 -58 -669 0 -654 -1 -638 60 -670 24 -12
79 -15 315 -15 173 0 285 -4 285 -10 0 -5 -5 -32 -11 -60 l-11 -50 -51 0 c-72
0 -123 -16 -147 -47 -26 -34 -30 -167 -4 -177 9 -3 224 -6 478 -6 346 0 465 3
474 12 7 7 12 39 12 74 0 48 -5 67 -22 89 -29 37 -76 55 -142 55 -60 0 -60 1
-71 74 l-7 46 266 0 c293 0 312 3 341 60 23 44 23 1206 0 1250 -32 63 4 60
-877 60 -691 -1 -807 -3 -830 -16z m1663 -53 c18 -22 19 -47 19 -616 0 -569
-1 -594 -19 -616 l-19 -24 -812 0 -812 0 -19 24 c-18 22 -19 47 -19 613 0 398
3 596 11 609 6 11 20 24 32 29 12 5 372 8 820 7 l799 -2 19 -24z m-602 -1351
c6 -28 11 -55 11 -60 0 -5 -39 -11 -87 -12 -80 -3 -88 -5 -88 -23 0 -19 8 -20
182 -23 l182 -2 21 -27 c15 -20 20 -38 18 -67 l-3 -41 -447 -3 -448 -2 0 50
c0 37 5 55 20 70 19 19 33 20 199 20 181 0 206 5 181 35 -9 11 -35 15 -95 15
l-83 0 10 48 c5 26 11 53 13 60 3 9 53 12 204 12 l199 0 11 -50z"/>
<path d="M546 1984 c-14 -14 -16 -75 -16 -529 0 -454 2 -515 16 -529 13 -14
59 -16 349 -16 183 0 340 3 349 6 9 3 16 12 16 19 0 7 -7 16 -16 19 -9 3 -164
6 -345 6 l-329 0 0 495 0 495 710 0 710 0 0 -495 0 -495 -322 -2 c-315 -3
-323 -3 -323 -23 0 -20 8 -20 327 -23 287 -2 328 0 342 14 14 14 16 74 16 529
0 454 -2 515 -16 529 -14 14 -94 16 -734 16 -640 0 -720 -2 -734 -16z"/>
<path d="M955 1765 c-14 -13 -25 -31 -25 -40 0 -17 -25 -21 -35 -5 -15 24 -60
9 -102 -32 -44 -43 -55 -82 -32 -105 16 -16 3 -43 -20 -43 -37 0 -51 -27 -51
-95 0 -55 3 -66 22 -79 12 -9 30 -16 40 -16 22 0 22 -9 4 -44 -19 -37 -11 -59
40 -106 48 -44 60 -47 90 -25 29 22 42 18 49 -14 10 -45 26 -52 102 -49 66 3
68 4 85 36 22 46 24 46 50 28 33 -23 44 -20 92 24 51 47 59 69 40 106 -16 31
-17 30 28 52 32 16 33 19 36 83 3 71 -10 99 -48 99 -25 0 -33 27 -14 55 19 29
12 44 -44 99 -41 39 -55 42 -105 21 -13 -6 -20 0 -32 28 -17 41 -30 47 -96 47
-40 0 -55 -5 -74 -25z m127 -51 c2 -20 12 -30 41 -41 35 -14 39 -14 58 3 19
17 21 17 56 -19 36 -35 36 -37 18 -57 -17 -19 -17 -21 0 -59 13 -30 24 -41 44
-43 23 -3 26 -8 29 -50 3 -44 2 -47 -25 -50 -20 -2 -33 -13 -48 -40 -18 -35
-18 -38 -2 -56 23 -26 22 -34 -13 -67 -26 -25 -33 -27 -48 -17 -31 22 -38 23
-75 7 -31 -13 -37 -20 -37 -45 0 -29 -1 -30 -50 -30 -49 0 -50 1 -50 31 0 25
-6 32 -36 45 -37 15 -45 14 -76 -8 -15 -10 -22 -8 -48 17 -34 33 -36 42 -14
66 31 34 -4 99 -52 99 -24 0 -25 3 -22 48 3 43 5 47 31 50 18 2 32 13 42 32
19 37 19 49 -2 72 -16 18 -15 21 20 55 35 36 37 36 56 19 19 -17 24 -18 58 -5
29 11 39 21 41 42 3 25 7 27 52 27 45 0 49 -2 52 -26z"/>
<path d="M964 1516 c-45 -45 -47 -95 -5 -137 23 -23 38 -29 71 -29 102 0 139
139 49 186 -45 23 -78 17 -115 -20z"/>
<path d="M1834 1677 c-2 -7 -3 -127 -2 -267 3 -219 5 -255 18 -255 13 0 15 37
18 261 2 229 0 262 -13 268 -9 3 -18 0 -21 -7z"/>
</g>
</svg>
