<?xml version="1.0" encoding="UTF-8"?>
<svg id="Layer_1" xmlns="http://www.w3.org/2000/svg" version="1.1" viewBox="0 0 150 40">
  <!-- Generator: Adobe Illustrator 29.1.0, SVG Export Plug-In . SVG Version: 2.1.0 Build 142)  -->
  <defs>
    <style>
      .st0 {
        fill: #fff;
      }

      .st1 {
        fill: #4d8400;
      }
    </style>
  </defs>
  <path class="st0" d="M15.4,16c-2.4,0-4.5,1.4-5.8,4.3l1-11.4h-6.3l-.3,3.1h2.4l-1.6,19c1.2.5,2.5.9,3.9,1.1.6,0,1.1.1,1.7.1,6.2,0,9.4-4.9,9.4-10.7,0-3.5-1.7-5.5-4.3-5.5ZM10.8,29c-.7,0-1.3-.1-1.9-.3h0c0-.4.1-.7.2-1.1.9-4.7,3.3-8,5.4-8s1.2,1,1.2,2.4c0,3.5-1.9,7-4.7,7Z"/>
  <path class="st0" d="M30,16c3.5,0,6.6,2.1,6.6,7.3s-3.5,9-8,9c-3.5,0-6.6-2.1-6.6-7.3s3.5-9,8-9ZM26.1,24.8c0,2.7,1,4.1,2.8,4.1s3.6-1.9,3.6-5.4-1.1-4.1-2.8-4.1c-2.3,0-3.6,1.9-3.6,5.4h0Z"/>
  <path class="st0" d="M52.9,28.9l.7-5.3c.1-1.1.2-2.2.2-3.3,0-3.4-1.7-4.3-3.7-4.3s-4.8,1.5-6.2,4.9l.4-4.6h-5.9l-.3,3h2l-1,12.2v.5c-.1,0,3.9,0,3.9,0v-.5c.3-2.9,1-5.7,2.3-8.3,1.1-2.2,2.5-3.6,3.7-3.6s.9.4.9,1.6c0,1.1-.1,2.2-.3,3.4l-1.1,7.4h6l.3-3.1h-1.8Z"/>
  <path class="st0" d="M71.5,16.3h-12.5l-.5,4.9h3.4l.2-1.8h4.2l-8.6,9.7-.3,2.9h13.1l.5-5h-3.2l-.2,2h-5.1l8.7-9.8.2-2.9Z"/>
  <path class="st0" d="M87.8,28.9l1-12.3h-1.6c-.7-.2-1.5-.4-2.2-.5-.7,0-1.3-.1-2-.1-5,0-9,3.7-9,10.4s1.9,5.8,4.5,5.8,4.2-1.4,5.6-4.7l-.4,4.5h5.5l.3-3.1h-1.6ZM79.3,28.7c-.8,0-1.3-1-1.3-2.7,0-3.7,1.7-7,4.7-7,.5,0,1,.1,1.5.2-.3,4.3-2.9,9.4-5,9.4Z"/>
  <path class="st0" d="M96.8,8.5c1.3-.1,2.4.8,2.5,2.1,0,0,0,.2,0,.3,0,1.4-1.1,2.5-2.4,2.6-.1,0-.2,0-.3,0-1.3.1-2.4-.8-2.5-2.1,0,0,0-.2,0-.2,0-1.4,1.1-2.5,2.5-2.5,0,0,.1,0,.2,0Z"/>
  <polygon class="st0" points="97.3 28.9 98.3 16.3 98.3 16.3 92.5 16.3 92.2 19.3 94.1 19.3 94.1 19.3 93.1 32 98.9 32 99.2 28.9 97.3 28.9"/>
  <path class="st1" d="M146.4,25.2h-37.7c-.8,0-.8,3,0,3h37.7c.8,0,.8-3,0-3"/>
  <path class="st1" d="M139.9,32.2h-20.3c-.8,0-.8,3,0,3h20.3c.8,0,.8-3,0-3Z"/>
  <path class="st1" d="M139.9,18.2h-24.7c-.8,0-.8,3,0,3h24.7c.8,0,.8-3,0-3Z"/>
  <path class="st1" d="M126.9,4.1h-3.8c-.8,0-.8,3,0,3h3.8c.8,0,.8-3,0-3Z"/>
  <path class="st1" d="M126.9,11.1h-11.7c-.8,0-.8,3,0,3h11.7c.8,0,.8-3,0-3"/>
</svg>